<svg xmlns="http://www.w3.org/2000/svg" xmlns:xlink="http://www.w3.org/1999/xlink" width="220" height="220" viewBox="0 0 220 220"><defs><clipPath id="b"><rect width="220" height="220"/></clipPath></defs><g id="a" clip-path="url(#b)"><rect width="220" height="220" fill="#fff"/><g transform="translate(-588.5 -369.6)"><path d="M1264.3,116.7H1078.5V266.6h185.8ZM1171.5,249a56,56,0,1,1,56-56A56.036,56.036,0,0,1,1171.5,249Z" transform="translate(-473 311.4)" fill="#777"/><path d="M-38,1.3V-35H147.8V1.3Z" transform="translate(643.5 416.6)" fill="#777"/><path d="M1167.7,191.6c-14.6-9.1-29.9-6.9-40.6-3.2a33.9,33.9,0,0,0-.2,4.5,44.6,44.6,0,1,0,89.2,0v-1.7C1200.9,197.2,1181.9,200.4,1167.7,191.6Z" transform="translate(-473 311.4)" fill="#5e88c3"/><circle cx="5" cy="5" r="5" transform="translate(670 509)" fill="#fff"/><circle cx="2" cy="2" r="2" transform="translate(664 504)" fill="#fff"/><circle cx="11" cy="11" r="11" transform="translate(758 389)" fill="#fff"/><path d="M4.692-2.04A5.583,5.583,0,0,1,1.445-3.077.362.362,0,0,0,1.19-3.2c-.153,0-.255.136-.255.34v1.683A.581.581,0,0,0,1.224-.6,6.323,6.323,0,0,0,4.811.272c2.652,0,4.76-1.326,4.76-3.842,0-1.7-.833-2.822-3.468-3.638C5-7.565,3.893-7.888,3.893-8.789c0-.646.476-1.173,1.564-1.173A4.644,4.644,0,0,1,8.636-8.789a.366.366,0,0,0,.221.1c.153,0,.272-.119.272-.323V-11.1c0-.34-.085-.459-.289-.561a6.393,6.393,0,0,0-3.162-.731C2.567-12.393.9-10.557.9-8.483.9-6.63,2.159-5.61,4.2-4.93c1.717.578,2.38.867,2.38,1.7C6.579-2.5,5.967-2.04,4.692-2.04ZM16.813-6.511c.2.731.493,1.564.68,2.04-.425-.034-.969-.034-1.445-.034-.459,0-1.054.017-1.6.051.2-.51.476-1.343.7-2.091A33.209,33.209,0,0,0,16-10.064,27.392,27.392,0,0,0,16.813-6.511Zm1.309,3.927A19.394,19.394,0,0,0,18.87-.17c.034.085.119.17.187.17h2.822c.17,0,.221-.136.153-.272l-4.1-11.577a.238.238,0,0,0-.2-.153H14.365a.222.222,0,0,0-.17.153L10.183-.272c-.068.187-.017.272.153.272h2.618c.068,0,.136-.085.17-.17a15.985,15.985,0,0,0,.714-2.414c.782.034,1.462.051,2.159.051C16.677-2.533,17.425-2.55,18.122-2.584ZM30.6-.136A.221.221,0,0,0,30.8,0h3.672a.18.18,0,0,0,.153-.153V-11.832a.182.182,0,0,0-.153-.17H32.028a.168.168,0,0,0-.153.17v5.287c0,1.36.017,2.363.187,4.4a17.432,17.432,0,0,0-1.377-3.893l-2.89-5.8A.3.3,0,0,0,27.54-12H23.664a.168.168,0,0,0-.153.17V-.153A.164.164,0,0,0,23.664,0h2.482a.163.163,0,0,0,.136-.153V-6.137c0-1.224-.051-2.448-.136-3.91a18.6,18.6,0,0,0,1.275,3.468Zm9.928-11.7a.182.182,0,0,0-.153-.17h-2.7a.168.168,0,0,0-.153.17V-.153A.164.164,0,0,0,37.672,0h2.7a.18.18,0,0,0,.153-.153ZM52.547-12H42.279c-.068,0-.1.051-.119.153l-.34,2.091a.133.133,0,0,0,.119.17c.782,0,1.207-.034,1.989-.034a18.528,18.528,0,0,0,1.938-.119c-.034.6-.051,1.292-.051,1.921V-.153A.164.164,0,0,0,45.968,0h2.7a.18.18,0,0,0,.153-.153V-7.786c0-.629-.051-1.326-.085-1.955.748.068,1.411.119,2.159.119.493,0,1.139.034,1.649.034.085,0,.119-.051.119-.136v-2.125C52.666-11.951,52.632-12,52.547-12Zm4.454.17a.182.182,0,0,0-.153-.17h-2.7a.168.168,0,0,0-.153.17V-.153A.164.164,0,0,0,54.145,0h2.7A.18.18,0,0,0,57-.153ZM63.138-2.04a5.583,5.583,0,0,1-3.247-1.037.362.362,0,0,0-.255-.119c-.153,0-.255.136-.255.34v1.683A.581.581,0,0,0,59.67-.6a6.323,6.323,0,0,0,3.587.867c2.652,0,4.76-1.326,4.76-3.842,0-1.7-.833-2.822-3.468-3.638-1.1-.357-2.21-.68-2.21-1.581,0-.646.476-1.173,1.564-1.173a4.644,4.644,0,0,1,3.179,1.173.366.366,0,0,0,.221.1c.153,0,.272-.119.272-.323V-11.1c0-.34-.085-.459-.289-.561a6.393,6.393,0,0,0-3.162-.731c-3.111,0-4.777,1.836-4.777,3.91,0,1.853,1.258,2.873,3.3,3.553,1.717.578,2.38.867,2.38,1.7C65.025-2.5,64.413-2.04,63.138-2.04Zm12.478-.238c-.986,0-1.547.017-2.431.068a14.308,14.308,0,0,0,.085-1.53,13.361,13.361,0,0,0-.085-1.411,18.91,18.91,0,0,0,2.057.1c.7,0,1.207.034,1.8.034.085,0,.119-.051.119-.136V-7.106c0-.1-.051-.153-.119-.153-.595,0-1.156.034-1.785.034a16.562,16.562,0,0,0-2.074.1,10.81,10.81,0,0,0,.085-1.309,12.969,12.969,0,0,0-.085-1.36c.493.034,1.207.068,2.074.068s2.278.034,3.3.034c.085,0,.136-.051.119-.136l-.255-2.023c-.017-.1-.051-.153-.153-.153H70.414a.168.168,0,0,0-.153.17V-.153A.164.164,0,0,0,70.414,0h8.109c.085,0,.1-.051.119-.136l.289-2.023a.12.12,0,0,0-.119-.153C77.792-2.312,76.7-2.278,75.616-2.278Z" transform="translate(619 405)" fill="#fff"/></g></g></svg>