<svg xmlns="http://www.w3.org/2000/svg" xmlns:xlink="http://www.w3.org/1999/xlink" width="220" height="220" viewBox="0 0 220 220"><defs><clipPath id="b"><rect width="220" height="220"/></clipPath></defs><g id="a" clip-path="url(#b)"><rect width="220" height="220" fill="#fff"/><g transform="translate(-588.5 -369.6)"><path d="M1264.3,116.7H1078.5V266.6h185.8ZM1171.5,249a56,56,0,1,1,56-56A56.036,56.036,0,0,1,1171.5,249Z" transform="translate(-473 311.4)" fill="#777"/><path d="M-38,1.3V-35H147.8V1.3Z" transform="translate(643.5 416.6)" fill="#777"/><path d="M1167.7,191.6c-14.6-9.1-29.9-6.9-40.6-3.2a33.9,33.9,0,0,0-.2,4.5,44.6,44.6,0,1,0,89.2,0v-1.7C1200.9,197.2,1181.9,200.4,1167.7,191.6Z" transform="translate(-473 311.4)" fill="#5e88c3"/><circle cx="5" cy="5" r="5" transform="translate(670 509)" fill="#fff"/><circle cx="2" cy="2" r="2" transform="translate(664 504)" fill="#fff"/><circle cx="11" cy="11" r="11" transform="translate(758 389)" fill="#fff"/><path d="M7.667-7.548H6.12c-.612,0-1.19.017-1.717.051.034-.646.051-1.377.051-2.091v-2.244A.182.182,0,0,0,4.3-12H1.6a.168.168,0,0,0-.153.17V-.153A.164.164,0,0,0,1.6,0H4.3a.18.18,0,0,0,.153-.153V-2.771c0-.8-.017-1.615-.051-2.329.68.034,1.105.034,1.683.034H7.7c.578,0,.986,0,1.666-.034-.034.714-.034,1.53-.034,2.329V-.153A.164.164,0,0,0,9.486,0h2.7a.18.18,0,0,0,.153-.153V-11.832a.182.182,0,0,0-.153-.17h-2.7a.168.168,0,0,0-.153.17v2.244c0,.714,0,1.445.034,2.091C8.84-7.531,8.279-7.548,7.667-7.548ZM24.48-12H14.212c-.068,0-.1.051-.119.153l-.34,2.091a.133.133,0,0,0,.119.17c.782,0,1.207-.034,1.989-.034A18.528,18.528,0,0,0,17.8-9.741c-.034.6-.051,1.292-.051,1.921V-.153A.164.164,0,0,0,17.9,0h2.7a.18.18,0,0,0,.153-.153V-7.786c0-.629-.051-1.326-.085-1.955.748.068,1.411.119,2.159.119.493,0,1.139.034,1.649.034.085,0,.119-.051.119-.136v-2.125C24.6-11.951,24.565-12,24.48-12Zm12.682,1.938c-.085,1.173-.153,3.145-.153,4.947V-.153A.149.149,0,0,0,37.145,0H39.61c.068,0,.119-.085.119-.153V-11.832c0-.085-.051-.17-.119-.17H35.581c-.085,0-.153.085-.187.17l-1.751,6a32.354,32.354,0,0,0-.663,3.3,32.669,32.669,0,0,0-.663-3.315l-1.768-5.984c-.034-.085-.119-.17-.187-.17H26.044c-.085,0-.119.085-.119.17V-.153c0,.068.034.153.119.153h2.482a.18.18,0,0,0,.153-.153V-5.78c0-1.292-.051-3.094-.136-4.284l2.72,9.911A.262.262,0,0,0,31.484,0h2.771c.068,0,.153-.085.2-.153Zm8.364,7.82c.085-1.207.1-2.176.1-3.128v-6.46a.182.182,0,0,0-.153-.17h-2.7a.168.168,0,0,0-.153.17V-.153A.164.164,0,0,0,42.772,0h8.16a.149.149,0,0,0,.153-.136L51.34-2.21a.12.12,0,0,0-.119-.153c-1.02,0-1.564.034-2.618.034C47.617-2.329,46.529-2.312,45.526-2.244Z" transform="translate(619 405)" fill="#fff"/></g></g></svg>