<svg xmlns="http://www.w3.org/2000/svg" xmlns:xlink="http://www.w3.org/1999/xlink" width="220" height="220" viewBox="0 0 220 220"><defs><clipPath id="b"><rect width="220" height="220"/></clipPath></defs><g id="a" clip-path="url(#b)"><rect width="220" height="220" fill="#fff"/><g transform="translate(-588.5 -369.6)"><path d="M1264.3,116.7H1078.5V266.6h185.8ZM1171.5,249a56,56,0,1,1,56-56A56.036,56.036,0,0,1,1171.5,249Z" transform="translate(-473 311.4)" fill="#777"/><path d="M-38,1.3V-35H147.8V1.3Z" transform="translate(643.5 416.6)" fill="#777"/><path d="M1167.7,191.6c-14.6-9.1-29.9-6.9-40.6-3.2a33.9,33.9,0,0,0-.2,4.5,44.6,44.6,0,1,0,89.2,0v-1.7C1200.9,197.2,1181.9,200.4,1167.7,191.6Z" transform="translate(-473 311.4)" fill="#5e88c3"/><circle cx="5" cy="5" r="5" transform="translate(670 509)" fill="#fff"/><circle cx="2" cy="2" r="2" transform="translate(664 504)" fill="#fff"/><circle cx="11" cy="11" r="11" transform="translate(758 389)" fill="#fff"/><path d="M1.241-4.063C1.241-1.207,3.876.221,6.749.221c2.992,0,5.406-1.632,5.406-4.318v-7.735A.182.182,0,0,0,12-12H9.35a.168.168,0,0,0-.153.17V-4.5c0,1.343-1.037,2.023-2.482,2.023-1.36,0-2.431-.68-2.431-2.04v-7.31A.182.182,0,0,0,4.131-12H1.394a.168.168,0,0,0-.153.17Zm17.136-.289c.646,0,1.513,1.156,2.924,3.094C22.032-.153,22.338,0,22.644,0h2.907a.31.31,0,0,0,.272-.34c0-.136-.017-.255-.136-.289A11.986,11.986,0,0,1,23.749-2.6a7.815,7.815,0,0,0-2.907-2.431,3.44,3.44,0,0,0,3.2-3.332C24.038-10.336,22.9-12,19.771-12h-4.76c-.068,0-.153.1-.153.221V-.153A.164.164,0,0,0,15.011,0h2.7a.18.18,0,0,0,.153-.153v-1.8c0-.8-.051-1.785-.1-2.431A4.241,4.241,0,0,0,18.377-4.352Zm.816-5.457c1.292,0,1.8.629,1.8,1.6,0,1.156-.663,1.819-2.193,1.819-.374,0-.765.034-1.02.051.051-.527.085-1.105.085-1.666,0-.612-.034-1.394-.085-1.87A12.459,12.459,0,0,0,19.193-9.809Zm10.948-2.023a.182.182,0,0,0-.153-.17h-2.7a.168.168,0,0,0-.153.17V-.153A.164.164,0,0,0,27.285,0h2.7a.18.18,0,0,0,.153-.153Z" transform="translate(619 405)" fill="#fff"/></g></g></svg>